<?xml version="1.0" encoding="UTF-8"?>
<svg id="Layer_1" data-name="Layer 1" xmlns="http://www.w3.org/2000/svg" viewBox="0 0 195 78">
  <path d="M51.22,54.82c-2.12.25-3.94.49-4.83,1.89-.24.38-1.18.75-1.46.53-1.29-1.04,1.22-2.45,1.35-3.15.18-1.01-3.46-6.16,4.31-12.57.98-.81,2.85-1.06,3.66-.5,4.06,2.8-2.03,9.12-4.14,12.14,6.58-.63,11.89-5.83,17.4-7.68.5-3.82,6.97-19.14,11.54-17.35.72.28,1.52,1.89,1.47,2.85-.37,7.23-6.02,16.62-11.81,20.91-.9,2.22-.34,6.26,1.02,8.26,2.15,3.16,5.79-.14,7.95-.32.31-.03.52,1.13.26,1.31l-1.12.77c-1.77,1.22-4.04,1.84-6.09,1.21-1.68-.52-3.57-2.46-3.8-4.59l-.66-6.14c-1.34-.39-2.62-1.24-3.12-2.56-3.63,1.79-7.44,4.46-11.93,4.99ZM78.67,31.89c.08-.39-.2-2.06-.47-1.95-3.88,1.63-9.36,13.96-9.17,19.17,4.97-4.47,8.26-10.55,9.65-17.22ZM53.16,42.58c-2.92.3-7.31,6.45-5.18,9.78,1.81-.95,8.03-10.07,5.18-9.78Z"/>
  <path d="M27.2,26.25c-1.88.73-12.29,3.55-11.82,1.37.39-1.82,4.79-.68,10.69-3.01,9.49-3.74,18.41-7.95,27.41-12.71,3.94-2.08,7.71-3.97,11.95-5.75.86,1.84-.66,4.19-1.76,4.04-1.28-.18-2.08-.34-3.23.28-10.94,5.9-21.65,11.25-33.25,15.78Z"/>
  <path d="M40.18,63.8c.01.32-.64,1.47-.9,1.31s-.93-.85-.95-1.24c-.9-14.64-1.11-28.45,3.37-42.48.11-.36.75-.86,1.01-1.02s.82,1.05.66,1.57c-4.39,13.82-3.88,26.48-3.18,41.86Z"/>
  <path d="M109.75,52.42c-.27.32-1.18.55-1.49.55s-.28-1.15-.06-1.42l4.48-5.55c-1.49-3.34-.96-6.97,1.66-9.08.43-.35,1.8-.54,2.26-.32,2.32,1.05-.66,7.02-1.38,9.12,3.39,2.19,14.31-6.72,14.4-4.46.09,2.39-4.37,4.01-4.22,7.29,2.96-.72,5.86-2.68,7.72-4.74.8-4.03,4.21-21.97,9.77-21.18,3.38.48,4.29,4.35,3.35,7.29-1.92,5.96-6.19,10.33-10.78,14.67-.72,2.82-.15,7.03,1.07,9.46,1.11-.63,2.3-1.13,2.62-.68.68,1.07-1.1,2.37-2.04,2.53-1.19.2-2.84-.99-3.03-2.41l-.94-6.85c-1.78.9-6.78,5.45-9.14,2.98-.67-.7-.46-2.38-.08-3.91l-4.24,1.61c-1.72.65-3.63.5-5.75.2l-4.16,4.93ZM135.74,41.44c3.79-3.05,5.85-6.46,8.16-10.17.42-1.81.65-3.33.85-5.27-4.43-7.04-9.14,13.76-9.01,15.44Z"/>
  <path d="M138.37,46.36c-1.62-2.93,6.08-7.07,8.08-6.07s-6.38,2.89-6.69,5.43c4.46.83,8.89.17,13.04-.76.31-3.43.04-6.43,3.24-7.69.67-.26,2.27.31,2.57,1.07,1.08,2.75-1.09,6.01-3.09,7.65-.64.53-.07,2.3.48,2.81s2.04.5,2.82.08c7.65-4.17,8.31-11.23,10.49-12.26.47-.22,1.17,1.42,1,2.1-2.05,8.04-2.98,17.14-1.8,25.67.06.41.56,1.35.84,1.59s1.07-.32,1.55-.45l1.22-.32c.37-.1.29,1.36.06,1.67-.56.74-2.47,1.43-3.31,1.15-4.56-1.51-2.32-19.3-1.88-24.07-2.3,3.06-8.08,9.08-11.73,6.69-.87-.57-1.57-2.11-2.1-3.61-3.34-.03-12.98,2.63-14.81-.67ZM155.25,43.94c1.45-2.02,1.92-3.34,1.57-5-2.2,1.28-2.34,3.57-1.57,5Z"/>
  <path d="M95.84,57.1c-2.79-6.49.82-15.39,3.69-21.24.17-.35.98-.74,1.24-.79.34-.06.67.99.52,1.33-2.3,5.23-6.03,13.57-4.16,19.08,4.85-5.76,11.48-7.66,8.53-16.26-5.25-15.3-18.34-17.08-13.97-23.08.45-.62,1.92-1.18,2.63-.87.78.34,1.35,1.26,1.5,2.26l-2.72-.44c-.79,1.21-.27,2.84.97,3.85,8.11,6.56,21.12,21.89,9.61,30.88-4.32,3.38-4.06,4.62-5.92,6.35-.37.34-1.71-.59-1.92-1.08Z"/>
</svg>